<?xml version="1.0" encoding="utf-8"?>
<!-- Generator: Adobe Illustrator 25.4.1, SVG Export Plug-In . SVG Version: 6.00 Build 0)  -->
<svg version="1.1" id="レイヤー_1" xmlns="http://www.w3.org/2000/svg" xmlns:xlink="http://www.w3.org/1999/xlink" x="0px"
	 y="0px" viewBox="0 0 173.91 39.41" style="enable-background:new 0 0 173.91 39.41;" xml:space="preserve">
<style type="text/css">
	.st0{fill:none;stroke:#E60012;stroke-miterlimit:10;}
</style>
<g>
	<g>
		<g>
			<path d="M26.31,21.14c1.03-3.55,2.26-7.69,3.05-10.08h-0.04c-1.66,3.62-5.52,11.8-8.43,17.85H16.9
				c0.65-5.42,1.62-14.07,2.09-17.88H18.9c-0.63,2.43-1.96,6.88-2.94,10.47l-1.98,7.4h-3.96l5.99-20.87h6.47
				c-0.68,6.08-1.23,11.43-1.7,14.4h0.04c1.31-2.96,4.74-9.94,7.09-14.4h6.33l-5.99,20.87h-4.16L26.31,21.14z"/>
			<path d="M37.72,21.67c-0.03,0.08-0.7,2.43-0.73,2.54c-0.38,1.28-0.29,2.36,1.28,2.36c1.52,0,1.91-1.12,2.17-2.04l0.13-0.46h4.19
				l-0.09,0.33c-0.67,2.42-1.8,4.76-6.78,4.76c-5.55,0-5.68-3.1-4.89-5.85l1.61-5.59c0.71-2.52,1.92-5.21,6.96-5.21
				c5.4,0,5.84,2.73,5.02,5.56c-0.02,0.09-1.01,3.5-1.04,3.6H37.72z M42.14,19.16c0.02-0.07,0.59-2.07,0.61-2.14
				c0.29-1.08,0.15-2.05-1.39-2.05c-1.39,0-1.95,0.8-2.3,2.03l-0.63,2.16H42.14z"/>
			<path d="M64.63,7.12l-4.97,17.3c-0.71,2.46-0.98,3.55-1.19,4.49h-4.15c0.04-0.46,0.05-0.8,0.19-1.27
				c-0.93,0.96-1.9,1.52-3.88,1.52c-3.59,0-4.06-2.52-3.22-5.45l1.79-6.14c0.75-2.55,1.99-5.09,5.88-5.09
				c1.57,0,2.89,0.44,3.36,1.19l1.85-6.55H64.63z M53.5,17.58l-1.85,6.41c-0.33,1.15-0.36,2.41,1.23,2.41c1.69,0,2.35-1.14,2.9-3.04
				l1.54-5.33c0.53-1.78,0.49-2.91-1.34-2.91C54.55,15.11,53.92,16.1,53.5,17.58z"/>
			<path d="M66.73,12.73H71l-4.66,16.17h-4.26L66.73,12.73z M68.36,7.12h4.26l-0.99,3.44h-4.26L68.36,7.12z"/>
			<path d="M82.54,24.92c-0.35,1.29-0.99,3.46-1.08,3.99h-4.15c0.05-0.31,0.14-0.82,0.26-1.31c-1.02,1.07-2.09,1.56-3.87,1.56
				c-3.43,0-3.93-2.42-3.21-4.91c1.11-3.76,3.58-4.74,8.69-5.31c0.29-0.03,0.55-0.06,0.84-0.09l0.58-1.96
				c0.33-1.14,0.2-1.91-1.11-1.91c-1.29,0-1.6,0.82-1.98,1.95l-0.16,0.49h-4.22l0.08-0.27c0.59-2.02,1.33-4.66,6.6-4.66
				c4.38,0,5.75,1.71,5.01,4.33L82.54,24.92z M79.4,21.3c-0.22,0.03-0.44,0.06-0.66,0.09c-2.25,0.36-3.37,0.89-3.95,2.7
				c-0.33,1.1-0.38,2.3,1.16,2.3c1.6,0,2.3-1.11,2.93-3.32L79.4,21.3z"/>
			<path d="M95.25,23.33l-0.13,0.56c-0.38,1.68-0.05,2.7,1.74,2.7c1.53,0,2.31-0.86,2.75-2.51c0.48-1.88,0.16-3.03-2.49-5.24
				c-3.01-2.51-3.84-3.85-3.11-6.75c0.71-2.87,2.9-4.36,6.47-4.36c5.55,0,6.14,3,5.57,5.47l-0.09,0.41h-4.29l0.09-0.41
				c0.35-1.54,0.34-2.81-1.37-2.81c-1.27,0-1.92,0.63-2.2,1.89c-0.33,1.47,0,2.38,2,4.08c3.77,3.19,4.52,5.01,3.68,8.02
				c-0.89,3.15-3.03,4.84-7.4,4.84c-4.94,0-6.49-2.26-5.61-5.55l0.09-0.33H95.25z"/>
			<path d="M115.57,7.12l-1.94,6.77c0.92-0.87,2.27-1.42,4.04-1.42c3.16,0,3.97,1.86,3.3,4.17l-3.53,12.26h-4.26l3.33-11.65
				c0.39-1.33,0.29-2.15-1.26-2.15c-1.58,0-2.18,0.86-2.71,2.68l-3.21,11.11h-4.26l6.24-21.78H115.57z"/>
			<path d="M136.1,17.88L134.35,24c-0.97,3.44-2.52,5.16-7.12,5.16c-4.34,0-6.23-1.96-5.26-5.36l1.87-6.47
				c0.86-3.03,2.74-4.85,7.06-4.85C135.27,12.48,137.02,14.59,136.1,17.88z M128.14,17.33l-2.03,7.03
				c-0.39,1.32,0.07,2.17,1.54,2.17c1.36,0,1.91-0.81,2.31-2.2l2.02-6.98c0.35-1.23,0.25-2.24-1.48-2.24
				C128.97,15.11,128.52,16.06,128.14,17.33z"/>
			<path d="M141.84,21.67c-0.03,0.08-0.7,2.43-0.73,2.54c-0.38,1.28-0.29,2.36,1.28,2.36c1.52,0,1.91-1.12,2.17-2.04l0.13-0.46h4.19
				l-0.09,0.33c-0.67,2.42-1.8,4.76-6.78,4.76c-5.55,0-5.68-3.1-4.89-5.85l1.61-5.59c0.71-2.52,1.92-5.21,6.96-5.21
				c5.4,0,5.84,2.73,5.02,5.56c-0.03,0.09-1.01,3.5-1.04,3.6H141.84z M146.26,19.16c0.02-0.07,0.59-2.07,0.61-2.14
				c0.29-1.08,0.15-2.05-1.39-2.05c-1.38,0-1.95,0.8-2.3,2.03l-0.63,2.16H146.26z"/>
			<path d="M155.32,23.85l-0.2,0.67c-0.32,1.14-0.2,2.12,1.26,2.12c1.08,0,1.53-0.51,1.82-1.4c0.52-1.6-0.19-2.57-1.83-3.75
				c-2.77-1.96-3.47-3.2-2.89-5.53c0.59-2.28,2.59-3.49,5.65-3.49c4.02,0,5.74,1.87,5.02,4.54l-0.17,0.62h-4l0.17-0.75
				c0.3-1.26,0.07-1.9-1.05-1.9c-0.86,0-1.35,0.49-1.55,1.35c-0.19,0.85-0.11,1.43,1.61,2.67c3.16,2.27,3.91,3.71,3.22,6.21
				c-0.69,2.54-2.58,3.94-6.22,3.94c-4.9,0-6.02-2.24-5.09-5.05l0.08-0.26H155.32z"/>
		</g>
	</g>
	<line class="st0" x1="2.87" y1="33.31" x2="171.04" y2="33.31"/>
</g>
</svg>
